<svg xmlns="http://www.w3.org/2000/svg" fill="none" viewBox="0 0 62 62">
  <rect width="61" height="61" x=".5" y=".5" stroke="#fff" stroke-opacity=".5" rx="30.5"/>
  <path fill="#FD9222" d="M31 17.667c-7.333 0-13.333 6-13.333 13.333s6 13.333 13.333 13.333 13.333-6 13.333-13.333-6-13.333-13.333-13.333Zm0 24c-5.867 0-10.667-4.8-10.667-10.667S25.133 20.333 31 20.333 41.667 25.133 41.667 31 36.867 41.667 31 41.667Z"/>
  <path fill="#FD9222" d="M32.733 29.667h-3.466c-.667 0-1.2-.534-1.2-1.2 0-.667.533-1.2 1.2-1.2H34.2c.8 0 1.333-.534 1.333-1.334S35 24.6 34.2 24.6h-1.867v-1.2c0-.8-.533-1.333-1.333-1.333-.8 0-1.333.533-1.333 1.333v1.2h-.4a3.87 3.87 0 0 0-3.867 3.867 3.87 3.87 0 0 0 3.867 3.866H32.6c.667 0 1.2.534 1.2 1.2 0 .667-.533 1.2-1.2 1.2h-4.933c-.8 0-1.334.534-1.334 1.334s.534 1.333 1.334 1.333h2v1.2c0 .8.533 1.333 1.333 1.333.8 0 1.333-.533 1.333-1.333v-1.2h.4a3.87 3.87 0 0 0 3.867-3.867 3.87 3.87 0 0 0-3.867-3.866Z"/>
</svg>
