<svg aria-hidden="true" style="position: absolute; width: 0; height: 0; overflow: hidden;" version="1.1" xmlns="http://www.w3.org/2000/svg" xmlns:xlink="http://www.w3.org/1999/xlink">
<defs>
<symbol id="icon-affordable-price" viewBox="0 0 32 32">
<path fill="none" stroke="#fff" style="stroke: var(--color1, #fff)" stroke-linejoin="miter" stroke-linecap="butt" stroke-miterlimit="4" stroke-width="0.5161" d="M16 0.258c8.694 0 15.742 7.048 15.742 15.742s-7.048 15.742-15.742 15.742c-8.694 0-15.742-7.048-15.742-15.742s7.048-15.742 15.742-15.742z"></path>
<path fill="#fd9222" style="fill: var(--color2, #fd9222)" d="M16 9.118c-3.785 0-6.882 3.097-6.882 6.882s3.097 6.882 6.882 6.882 6.882-3.097 6.882-6.882-3.097-6.882-6.882-6.882zM16 21.506c-3.028 0-5.506-2.477-5.506-5.506s2.477-5.506 5.506-5.506 5.506 2.477 5.506 5.506-2.477 5.506-5.506 5.506z"></path>
<path fill="#fd9222" style="fill: var(--color2, #fd9222)" d="M16.894 15.312h-1.789c-0.344 0-0.619-0.276-0.619-0.619s0.275-0.619 0.619-0.619h2.546c0.413 0 0.688-0.276 0.688-0.689s-0.275-0.688-0.688-0.688h-0.964v-0.619c0-0.413-0.275-0.688-0.688-0.688s-0.688 0.275-0.688 0.688v0.619h-0.206c-1.102 0.001-1.995 0.894-1.996 1.996v0c0.001 1.102 0.894 1.994 1.996 1.995h1.72c0.344 0 0.619 0.276 0.619 0.619s-0.275 0.619-0.619 0.619h-2.546c-0.413 0-0.689 0.276-0.689 0.689s0.276 0.688 0.689 0.688h1.032v0.619c0 0.413 0.275 0.688 0.688 0.688s0.688-0.275 0.688-0.688v-0.619h0.206c1.102-0.001 1.995-0.894 1.996-1.996v-0c-0.001-1.102-0.894-1.994-1.996-1.995h-0z"></path>
</symbol>
<symbol id="icon-arrow-right" viewBox="0 0 32 32">
<path stroke-linejoin="round" stroke-linecap="round" stroke-miterlimit="4" stroke-width="1.3333" d="M9.143 16h13.714M22.857 16l-3.429-3.429M22.857 16l-3.429 3.429"></path>
<path stroke-linejoin="round" stroke-linecap="round" stroke-miterlimit="4" stroke-width="1.3333" d="M16 30.857c8.205 0 14.857-6.652 14.857-14.857s-6.652-14.857-14.857-14.857c-8.205 0-14.857 6.652-14.857 14.857s6.652 14.857 14.857 14.857z"></path>
</symbol>
<symbol id="icon-chokolate-logo" viewBox="0 0 32 32">
<path fill="none" stroke="#fd9222" style="stroke: var(--color2, #fd9222)" stroke-linejoin="round" stroke-linecap="round" stroke-miterlimit="4" stroke-width="2.6667" d="M22.301 23.88l-14.187-8.864M12.028 8.599l14.185 8.864M11.296 25.864l11.736-19.249M27.843 14.788c-3.040-1.899-4.233-3.383-2.277-6.591l-9.627-6.016-11.735 19.251 14.185 8.864 9.453-15.507z"></path>
</symbol>
<symbol id="icon-facebook-icon" viewBox="0 0 32 32">
<path stroke-linejoin="round" stroke-linecap="round" stroke-miterlimit="4" stroke-width="2" d="M24 2.667h-4c-3.682 0-6.667 2.985-6.667 6.667v0 4h-4v5.333h4v10.667h5.333v-10.667h4l1.333-5.333h-5.333v-4c0-0.736 0.597-1.333 1.333-1.333v0h4v-5.333z"></path>
</symbol>
<symbol id="icon-instagram-icon" viewBox="0 0 32 32">
<path stroke-linejoin="round" stroke-linecap="round" stroke-miterlimit="4" stroke-width="2" d="M22.667 2.667h-13.333c-3.682 0-6.667 2.985-6.667 6.667v0 13.333c0 3.682 2.985 6.667 6.667 6.667v0h13.333c3.682 0 6.667-2.985 6.667-6.667v0-13.333c0-3.682-2.985-6.667-6.667-6.667v0z"></path>
<path stroke-linejoin="round" stroke-linecap="round" stroke-miterlimit="4" stroke-width="2" d="M21.333 15.16c0.037 0.235 0.058 0.506 0.058 0.783 0 2.946-2.388 5.334-5.334 5.334-2.67 0-4.881-1.961-5.272-4.521l-0.004-0.030c-0.037-0.235-0.058-0.506-0.058-0.783 0-2.946 2.388-5.334 5.334-5.334 2.67 0 4.881 1.961 5.272 4.521l0.004 0.030z"></path>
<path stroke-linejoin="round" stroke-linecap="round" stroke-miterlimit="4" stroke-width="2" d="M21.333 15.16c0.037 0.235 0.058 0.506 0.058 0.783 0 2.946-2.388 5.334-5.334 5.334-2.67 0-4.881-1.961-5.272-4.521l-0.004-0.030c-0.037-0.235-0.058-0.506-0.058-0.783 0-2.946 2.388-5.334 5.334-5.334 2.67 0 4.881 1.961 5.272 4.521l0.004 0.030zM23.333 8.667h0.013M23.333 8.667h0.013"></path>
</symbol>
<symbol id="icon-own-production" viewBox="0 0 32 32">
<path fill="none" stroke="#fff" style="stroke: var(--color1, #fff)" stroke-linejoin="miter" stroke-linecap="butt" stroke-miterlimit="4" stroke-width="0.5161" d="M16 0.258c8.694 0 15.742 7.048 15.742 15.742s-7.048 15.742-15.742 15.742c-8.694 0-15.742-7.048-15.742-15.742s7.048-15.742 15.742-15.742z"></path>
<path fill="#fd9222" style="fill: var(--color2, #fd9222)" d="M15.717 15.022c-0.378-0.456-0.607-1.047-0.607-1.692 0-0.001 0-0.002 0-0.002v0c0-2.232 2.674-4.46 5.348-4.46 1.477 0.001 2.674 1.198 2.674 2.675v0c0 2.675-2.228 5.349-4.462 5.349-0 0-0.001 0-0.001 0-0.645 0-1.236-0.229-1.696-0.611l0.004 0.004-6.585 6.586c-0.159 0.148-0.373 0.239-0.608 0.239-0.493 0-0.893-0.4-0.893-0.893 0-0.235 0.091-0.449 0.24-0.609l-0.001 0.001 6.588-6.586z"></path>
</symbol>
<symbol id="icon-scroll-down-image" viewBox="0 0 32 32">
<path fill="#fd9222" style="fill: var(--color2, #fd9222)" d="M16.947 17.867c-0.124 0.125-0.271 0.224-0.434 0.292s-0.337 0.103-0.513 0.103-0.35-0.035-0.513-0.103c-0.162-0.068-0.31-0.167-0.434-0.292l-6.107-6.12c-0.124-0.125-0.271-0.224-0.434-0.292s-0.337-0.103-0.513-0.103c-0.176 0-0.35 0.035-0.513 0.103s-0.31 0.167-0.434 0.292c-0.248 0.25-0.388 0.588-0.388 0.94s0.139 0.69 0.388 0.94l6.12 6.12c0.75 0.749 1.767 1.17 2.827 1.17s2.077-0.421 2.827-1.17l6.12-6.12c0.246-0.248 0.385-0.584 0.387-0.933 0.001-0.175-0.033-0.349-0.099-0.512s-0.164-0.31-0.288-0.435c-0.124-0.125-0.271-0.224-0.434-0.292s-0.337-0.103-0.513-0.103-0.35 0.035-0.513 0.103c-0.162 0.068-0.31 0.167-0.434 0.292l-6.107 6.12z"></path>
</symbol>
<symbol id="icon-twitter-icon" viewBox="0 0 32 32">
<path stroke-linejoin="round" stroke-linecap="round" stroke-miterlimit="4" stroke-width="2" d="M30.667 4c-1.2 0.856-2.591 1.552-4.084 2.013l-0.103 0.027c-1.101-1.261-2.712-2.053-4.507-2.053-3.299 0-5.973 2.674-5.973 5.973 0 0.028 0 0.056 0.001 0.084l-0-0.004v1.333c-0.109 0.003-0.238 0.005-0.367 0.005-2.331 0-4.53-0.561-6.471-1.555l0.080 0.037c-2.093-1.053-4.56-3.563-5.908-5.48 0 0-4.667 12.953 7.333 18.287-2.442 1.677-5.462 2.679-8.716 2.679-0.217 0-0.433-0.004-0.648-0.013l0.031 0.001c12 6.667 26.667 0 26.667-15.333 0-0.372-0.037-0.741-0.107-1.107 1.323-1.305 2.293-2.963 2.758-4.822l0.015-0.071z"></path>
</symbol>
<symbol id="icon-passed-taste" viewBox="0 0 32 32">
<path fill="none" stroke="#fff" style="stroke: var(--color1, #fff)" stroke-linejoin="miter" stroke-linecap="butt" stroke-miterlimit="4" stroke-width="0.5161" d="M16 0.258c8.694 0 15.742 7.048 15.742 15.742s-7.048 15.742-15.742 15.742c-8.694 0-15.742-7.048-15.742-15.742s7.048-15.742 15.742-15.742z"></path>
<path fill="#111" style="fill: var(--color3, #111)" d="M14.876 8.987l3.884 3.89 0.041-0.041c0.080-0.078 0.189-0.126 0.309-0.126 0.117 0 0.223 0.045 0.302 0.119l-0-0 0.004 0.003 0.447 0.448c0.157 0.157 0.162 0.397 0.042 0.564l-0.002 0.004-0.073 0.099 3.179 3.179c0.284 0.284 0.284 0.738 0 1.022l-4.867 4.867c-0.284 0.284-0.738 0.284-1.022 0l-2.296-2.296c-0.080 0.101-0.203 0.165-0.341 0.165-0.12 0-0.229-0.049-0.308-0.127l-1.342-1.342c-0.078-0.080-0.126-0.189-0.126-0.309 0-0.117 0.046-0.224 0.12-0.303l-0 0 0.003-0.004 0.039-0.039-3.884-3.885c-0.284-0.284-0.284-0.738 0-1.022l4.867-4.867c0.284-0.284 0.738-0.284 1.022 0zM18.273 13.364l-0.906-0.906c-0.056-0.057-0.133-0.093-0.219-0.093s-0.164 0.036-0.219 0.093l-1.848 1.848c-0.057 0.057-0.092 0.135-0.092 0.222s0.035 0.165 0.092 0.222v0l0.903 0.903 0.315-0.315-0.808-0.808 1.657-1.662 0.81 0.813 0.316-0.317zM15.653 15.982l-0.905-0.905c-0.056-0.057-0.133-0.093-0.219-0.093s-0.164 0.036-0.219 0.093l-1.853 1.853c-0.124 0.119-0.124 0.315 0 0.439l0.905 0.904 0.318-0.318-0.81-0.807 1.662-1.657 0.807 0.807 0.315-0.316zM12.296 11.971l1.848 1.848c0.124 0.124 0.32 0.124 0.439-0.005l1.848-1.848c0.057-0.055 0.093-0.132 0.093-0.217v0h0.005c0-0.077-0.031-0.16-0.093-0.222l-1.848-1.848c-0.057-0.057-0.135-0.092-0.222-0.092s-0.165 0.035-0.222 0.092l-0 0-1.848 1.853c-0.124 0.119-0.124 0.315 0 0.439zM9.679 14.588l1.848 1.848c0.124 0.124 0.32 0.124 0.439 0l1.848-1.848c0.057-0.055 0.093-0.132 0.093-0.217 0-0.002-0-0.004-0-0.005v0h0.005c0-0.083-0.031-0.16-0.093-0.222l-1.848-1.848c-0.056-0.057-0.133-0.093-0.219-0.093s-0.164 0.036-0.219 0.093l-1.853 1.853c-0.124 0.119-0.124 0.315 0 0.439zM13.257 19.106l1.219 1.22 4.974-6.73-0.338-0.338-5.855 5.848z"></path>
<path fill="#fd9222" style="fill: var(--color2, #fd9222)" d="M14.876 8.987l3.884 3.89 0.041-0.041c0.080-0.078 0.189-0.126 0.309-0.126 0.117 0 0.223 0.045 0.302 0.119l-0-0 0.004 0.003 0.447 0.448c0.157 0.157 0.162 0.397 0.042 0.564l-0.002 0.004-0.073 0.099 3.179 3.179c0.284 0.284 0.284 0.738 0 1.022l-4.867 4.867c-0.284 0.284-0.738 0.284-1.022 0l-2.296-2.296c-0.080 0.101-0.203 0.165-0.341 0.165-0.12 0-0.229-0.049-0.308-0.127l-1.342-1.342c-0.078-0.080-0.126-0.189-0.126-0.309 0-0.117 0.046-0.224 0.12-0.303l-0 0 0.003-0.004 0.039-0.039-3.884-3.885c-0.284-0.284-0.284-0.738 0-1.022l4.867-4.867c0.284-0.284 0.738-0.284 1.022 0zM18.273 13.364l-0.906-0.906c-0.056-0.057-0.133-0.093-0.219-0.093s-0.164 0.036-0.219 0.093l-1.848 1.848c-0.057 0.057-0.092 0.135-0.092 0.222s0.035 0.165 0.092 0.222v0l0.903 0.903 0.315-0.315-0.808-0.808 1.657-1.662 0.81 0.813 0.316-0.317zM15.653 15.982l-0.905-0.905c-0.056-0.057-0.133-0.093-0.219-0.093s-0.164 0.036-0.219 0.093l-1.853 1.853c-0.124 0.119-0.124 0.315 0 0.439l0.905 0.904 0.318-0.318-0.81-0.807 1.662-1.657 0.807 0.807 0.315-0.316zM12.296 11.971l1.848 1.848c0.124 0.124 0.32 0.124 0.439-0.005l1.848-1.848c0.057-0.055 0.093-0.132 0.093-0.217v0h0.005c0-0.077-0.031-0.16-0.093-0.222l-1.848-1.848c-0.057-0.057-0.135-0.092-0.222-0.092s-0.165 0.035-0.222 0.092l-0 0-1.848 1.853c-0.124 0.119-0.124 0.315 0 0.439zM9.679 14.588l1.848 1.848c0.124 0.124 0.32 0.124 0.439 0l1.848-1.848c0.057-0.055 0.093-0.132 0.093-0.217 0-0.002-0-0.004-0-0.005v0h0.005c0-0.083-0.031-0.16-0.093-0.222l-1.848-1.848c-0.056-0.057-0.133-0.093-0.219-0.093s-0.164 0.036-0.219 0.093l-1.853 1.853c-0.124 0.119-0.124 0.315 0 0.439zM13.257 19.106l1.219 1.22 4.974-6.73-0.338-0.338-5.855 5.848z"></path>
</symbol>
<symbol id="scroll-down-image" viewBox="0 0 32 32">
<path d="M16.947 17.867c-0.124 0.125-0.271 0.224-0.434 0.292s-0.337 0.103-0.513 0.103-0.35-0.035-0.513-0.103c-0.162-0.068-0.31-0.167-0.434-0.292l-6.107-6.12c-0.124-0.125-0.271-0.224-0.434-0.292s-0.337-0.103-0.513-0.103c-0.176 0-0.35 0.035-0.513 0.103s-0.31 0.167-0.434 0.292c-0.248 0.25-0.388 0.588-0.388 0.94s0.139 0.69 0.388 0.94l6.12 6.12c0.75 0.749 1.767 1.17 2.827 1.17s2.077-0.421 2.827-1.17l6.12-6.12c0.246-0.248 0.385-0.584 0.387-0.933 0.001-0.175-0.033-0.349-0.099-0.512s-0.164-0.31-0.288-0.435c-0.124-0.125-0.271-0.224-0.434-0.292s-0.337-0.103-0.513-0.103-0.35 0.035-0.513 0.103c-0.162 0.068-0.31 0.167-0.434 0.292l-6.107 6.12z"></path>
</symbol>
</defs>
</svg>
