<svg xmlns="http://www.w3.org/2000/svg" fill="none" viewBox="0 0 24 24">
  <path stroke="#111" stroke-linecap="round" stroke-linejoin="round" stroke-width="1.5" d="M17 2H7a5 5 0 0 0-5 5v10a5 5 0 0 0 5 5h10a5 5 0 0 0 5-5V7a5 5 0 0 0-5-5Z"/>
  <path stroke="#111" stroke-linecap="round" stroke-linejoin="round" stroke-width="1.5" d="M16 11.37a4 4 0 1 1-7.914 1.174A4 4 0 0 1 16 11.37Z"/>
  <path stroke="#111" stroke-linecap="round" stroke-linejoin="round" stroke-width="1.5" d="M16 11.37a4 4 0 1 1-7.914 1.174A4 4 0 0 1 16 11.37Zm1.5-4.87h.01m-.01 0h.01"/>
</svg>
