<svg xmlns="http://www.w3.org/2000/svg" fill="none" viewBox="0 0 62 62">
  <rect width="61" height="61" x=".5" y=".5" stroke="#fff" stroke-opacity=".5" rx="30.5"/>
  <path fill="#111" d="m28.823 17.413 7.526 7.537.08-.08a.856.856 0 0 1 1.184-.014l.007.006.867.868c.304.305.314.77.082 1.093l-.004.008-.142.192 6.16 6.16c.55.55.55 1.43 0 1.98l-9.43 9.43c-.55.55-1.43.55-1.98 0l-4.448-4.448a.843.843 0 0 1-1.256.072l-2.6-2.6a.856.856 0 0 1-.012-1.184l.006-.008.076-.075-7.526-7.527c-.55-.55-.55-1.43 0-1.98l9.43-9.43c.55-.55 1.43-.55 1.98 0Zm6.581 8.48-1.756-1.755a.592.592 0 0 0-.85 0l-3.58 3.58a.607.607 0 0 0 0 .86l1.75 1.75.61-.61-1.566-1.566 3.21-3.22 1.57 1.575.612-.614Zm-5.076 5.072-1.753-1.753a.592.592 0 0 0-.85 0l-3.58 3.58-.005.005-.006.005c-.24.23-.24.61 0 .85l1.753 1.752.616-.617-1.57-1.563 3.22-3.21 1.564 1.563.611-.612Zm-6.505-7.771 3.58 3.58c.24.24.62.24.85-.01l3.58-3.58a.58.58 0 0 0 .18-.42h.01c0-.15-.06-.31-.18-.43l-3.58-3.58a.606.606 0 0 0-.86 0l-3.58 3.59c-.24.23-.24.61 0 .85Zm-5.07 5.07 3.58 3.58c.24.24.62.24.85 0l3.58-3.58a.58.58 0 0 0 .18-.43h.01c0-.16-.06-.31-.18-.43l-3.58-3.58a.592.592 0 0 0-.85 0l-3.59 3.59c-.24.23-.24.61 0 .85Zm6.933 8.753 2.361 2.363 9.637-13.04-.655-.654-11.344 11.331Z"/>
  <path fill="#FD9222" d="m28.823 17.413 7.526 7.537.08-.08a.856.856 0 0 1 1.184-.014l.007.006.867.868c.304.305.314.77.082 1.093l-.004.008-.142.192 6.16 6.16c.55.55.55 1.43 0 1.98l-9.43 9.43c-.55.55-1.43.55-1.98 0l-4.448-4.448a.843.843 0 0 1-1.256.072l-2.6-2.6a.856.856 0 0 1-.012-1.184l.006-.008.076-.075-7.526-7.527c-.55-.55-.55-1.43 0-1.98l9.43-9.43c.55-.55 1.43-.55 1.98 0Zm6.581 8.48-1.756-1.755a.592.592 0 0 0-.85 0l-3.58 3.58a.607.607 0 0 0 0 .86l1.75 1.75.61-.61-1.566-1.566 3.21-3.22 1.57 1.575.612-.614Zm-5.076 5.072-1.753-1.753a.592.592 0 0 0-.85 0l-3.58 3.58-.005.005-.006.005c-.24.23-.24.61 0 .85l1.753 1.752.616-.617-1.57-1.563 3.22-3.21 1.564 1.563.611-.612Zm-6.505-7.771 3.58 3.58c.24.24.62.24.85-.01l3.58-3.58a.58.58 0 0 0 .18-.42h.01c0-.15-.06-.31-.18-.43l-3.58-3.58a.606.606 0 0 0-.86 0l-3.58 3.59c-.24.23-.24.61 0 .85Zm-5.07 5.07 3.58 3.58c.24.24.62.24.85 0l3.58-3.58a.58.58 0 0 0 .18-.43h.01c0-.16-.06-.31-.18-.43l-3.58-3.58a.592.592 0 0 0-.85 0l-3.59 3.59c-.24.23-.24.61 0 .85Zm6.933 8.753 2.361 2.363 9.637-13.04-.655-.654-11.344 11.331Z"/>
</svg>
